<svg xmlns="http://www.w3.org/2000/svg" xmlns:xlink="http://www.w3.org/1999/xlink" preserveAspectRatio="xMidYMid" width="13" height="12" viewBox="0 0 13 12">
  <defs>
    <style>

      .cls-2 {
        fill: #536dfe;
      }
    </style>
  </defs>
  <path d="M3.000,-0.000 C4.857,0.189 5.415,1.365 7.000,1.000 C7.512,0.882 8.027,0.149 9.500,-0.000 C10.403,2.224 10.802,2.573 13.000,3.500 C12.696,4.492 11.597,5.057 11.500,5.500 C11.104,7.307 13.072,6.889 12.500,8.500 C11.071,9.837 9.674,11.725 7.500,12.000 C6.015,10.444 5.465,11.651 3.000,12.000 C3.000,11.333 3.000,10.667 3.000,10.000 C1.688,9.321 0.616,9.011 -0.000,7.500 C1.630,6.035 0.588,5.315 -0.000,3.500 C2.049,2.720 2.771,2.760 3.000,-0.000 ZM5.000,3.000 C4.459,3.879 3.742,4.809 3.000,5.500 C3.315,6.377 3.096,5.986 3.500,6.500 C4.178,8.699 5.060,9.042 8.000,9.000 C9.817,6.229 10.239,2.822 5.000,3.000 Z" id="path-1" class="cls-2" fill-rule="evenodd"/>
</svg>
